<svg width="1920" height="1080" viewBox="0 0 1920 1080" fill="none" xmlns="http://www.w3.org/2000/svg">
<g clip-path="url(#clip0_1_10780)">
<mask id="mask0_1_10780" style="mask-type:luminance" maskUnits="userSpaceOnUse" x="0" y="0" width="1920" height="1080">
<path d="M1920 0H0V1080H1920V0Z" fill="white" style="fill:white;fill:white;fill-opacity:1;"/>
</mask>
<g mask="url(#mask0_1_10780)">
<path d="M1920 0H0V1080H1920V0Z" fill="white" style="fill:white;fill:white;fill-opacity:1;"/>
<g opacity="0.12">
<path d="M2159.99 1106.36C2159.99 1106.36 1976.17 1209.46 1683.26 1209.46C1390.35 1209.46 1311.64 940.635 942.005 940.635C572.368 940.635 495.457 1369.42 -1.40527 1369.42" stroke="#6E62FF" style="stroke:#6E62FF;stroke:color(display-p3 0.4314 0.3843 1.0000);stroke-opacity:1;" stroke-width="0.5428" stroke-miterlimit="10"/>
<path opacity="0.9756" d="M2159.99 1101.86C2159.99 1101.86 1976.17 1215.94 1683.26 1215.94C1390.35 1215.94 1311.64 930.739 942.005 930.739C572.368 930.739 495.457 1357.01 -1.40527 1357.01" stroke="#6E62FF" style="stroke:#6E62FF;stroke:color(display-p3 0.4314 0.3843 1.0000);stroke-opacity:1;" stroke-width="0.5362" stroke-miterlimit="10"/>
<path opacity="0.9512" d="M2159.99 1097.36C2159.99 1097.36 1976.17 1222.41 1683.26 1222.41C1390.35 1222.41 1311.64 920.842 942.005 920.842C572.368 920.842 495.457 1344.41 -1.40527 1344.41" stroke="#6E62FF" style="stroke:#6E62FF;stroke:color(display-p3 0.4314 0.3843 1.0000);stroke-opacity:1;" stroke-width="0.5296" stroke-miterlimit="10"/>
<path opacity="0.9268" d="M2159.99 1092.86C2159.99 1092.86 1976.17 1228.89 1683.26 1228.89C1390.35 1228.89 1311.64 910.946 942.005 910.946C572.368 910.946 495.637 1331.99 -1.40527 1331.99" stroke="#6E62FF" style="stroke:#6E62FF;stroke:color(display-p3 0.4314 0.3843 1.0000);stroke-opacity:1;" stroke-width="0.523" stroke-miterlimit="10"/>
<path opacity="0.9024" d="M2159.99 1088.18C2159.99 1088.18 1976.17 1235.01 1683.26 1235.01C1390.35 1235.01 1311.64 901.051 942.005 901.051C572.368 901.051 495.457 1319.58 -1.40527 1319.58" stroke="#6E62FF" style="stroke:#6E62FF;stroke:color(display-p3 0.4314 0.3843 1.0000);stroke-opacity:1;" stroke-width="0.5164" stroke-miterlimit="10"/>
<path opacity="0.878" d="M2159.99 1083.68C2159.99 1083.68 1976.17 1241.49 1683.26 1241.49C1390.35 1241.49 1311.64 891.153 942.005 891.153C572.368 891.153 495.457 1307.16 -1.40527 1307.16" stroke="#6E62FF" style="stroke:#6E62FF;stroke:color(display-p3 0.4314 0.3843 1.0000);stroke-opacity:1;" stroke-width="0.5097" stroke-miterlimit="10"/>
<path opacity="0.8537" d="M2159.99 1079.19C2159.99 1079.19 1976.17 1247.96 1683.26 1247.96C1390.35 1247.96 1311.64 881.437 942.005 881.437C572.368 881.437 495.457 1294.75 -1.40527 1294.75" stroke="#6E62FF" style="stroke:#6E62FF;stroke:color(display-p3 0.4314 0.3843 1.0000);stroke-opacity:1;" stroke-width="0.5031" stroke-miterlimit="10"/>
<path opacity="0.8293" d="M2159.99 1074.69C2159.99 1074.69 1976.17 1254.44 1683.26 1254.44C1390.35 1254.44 1311.64 871.54 942.005 871.54C572.368 871.54 495.457 1282.33 -1.40527 1282.33" stroke="#6E62FF" style="stroke:#6E62FF;stroke:color(display-p3 0.4314 0.3843 1.0000);stroke-opacity:1;" stroke-width="0.4965" stroke-miterlimit="10"/>
<path opacity="0.8049" d="M2159.99 1070.19C2159.99 1070.19 1976.17 1260.92 1683.26 1260.92C1390.35 1260.92 1311.64 861.645 942.005 861.645C572.368 861.645 495.457 1269.92 -1.40527 1269.92" stroke="#6E62FF" style="stroke:#6E62FF;stroke:color(display-p3 0.4314 0.3843 1.0000);stroke-opacity:1;" stroke-width="0.4899" stroke-miterlimit="10"/>
<path opacity="0.7805" d="M2159.99 1065.51C2159.99 1065.51 1976.17 1267.04 1683.26 1267.04C1390.35 1267.04 1311.64 851.747 942.005 851.747C572.368 851.747 495.457 1257.5 -1.40527 1257.5" stroke="#6E62FF" style="stroke:#6E62FF;stroke:color(display-p3 0.4314 0.3843 1.0000);stroke-opacity:1;" stroke-width="0.4833" stroke-miterlimit="10"/>
<path opacity="0.7561" d="M2159.99 1061.01C2159.99 1061.01 1976.17 1273.52 1683.26 1273.52C1390.35 1273.52 1311.64 841.851 942.005 841.851C572.368 841.851 495.457 1245.09 -1.40527 1245.09" stroke="#6E62FF" style="stroke:#6E62FF;stroke:color(display-p3 0.4314 0.3843 1.0000);stroke-opacity:1;" stroke-width="0.4766" stroke-miterlimit="10"/>
<path opacity="0.7317" d="M2159.99 1056.51C2159.99 1056.51 1976.17 1279.99 1683.26 1279.99C1390.35 1279.99 1311.64 831.954 942.005 831.954C572.368 831.954 495.457 1232.67 -1.40527 1232.67" stroke="#6E62FF" style="stroke:#6E62FF;stroke:color(display-p3 0.4314 0.3843 1.0000);stroke-opacity:1;" stroke-width="0.47" stroke-miterlimit="10"/>
<path opacity="0.7073" d="M2159.99 1052.02C2159.99 1052.02 1976.17 1286.47 1683.26 1286.47C1390.35 1286.47 1311.64 822.238 942.005 822.238C572.368 822.238 495.457 1220.25 -1.40527 1220.25" stroke="#6E62FF" style="stroke:#6E62FF;stroke:color(display-p3 0.4314 0.3843 1.0000);stroke-opacity:1;" stroke-width="0.4634" stroke-miterlimit="10"/>
<path opacity="0.6829" d="M2159.99 1047.34C2159.99 1047.34 1976.17 1292.77 1683.26 1292.77C1390.35 1292.77 1311.64 812.342 942.005 812.342C572.368 812.342 495.457 1207.66 -1.40527 1207.66" stroke="#6E62FF" style="stroke:#6E62FF;stroke:color(display-p3 0.4314 0.3843 1.0000);stroke-opacity:1;" stroke-width="0.4568" stroke-miterlimit="10"/>
<path opacity="0.6585" d="M2159.99 1042.84C2159.99 1042.84 1976.17 1299.07 1683.26 1299.07C1390.35 1299.07 1311.64 802.444 942.005 802.444C572.368 802.444 495.457 1195.24 -1.40527 1195.24" stroke="#6E62FF" style="stroke:#6E62FF;stroke:color(display-p3 0.4314 0.3843 1.0000);stroke-opacity:1;" stroke-width="0.4502" stroke-miterlimit="10"/>
<path opacity="0.6341" d="M2159.99 1038.34C2159.99 1038.34 1976.17 1305.54 1683.26 1305.54C1390.35 1305.54 1311.64 792.549 942.005 792.549C572.368 792.549 495.457 1182.83 -1.40527 1182.83" stroke="#6E62FF" style="stroke:#6E62FF;stroke:color(display-p3 0.4314 0.3843 1.0000);stroke-opacity:1;" stroke-width="0.4435" stroke-miterlimit="10"/>
<path opacity="0.6098" d="M2159.99 1033.84C2159.99 1033.84 1976.17 1312.02 1683.26 1312.02C1390.35 1312.02 1311.64 782.652 942.005 782.652C572.368 782.652 495.457 1170.41 -1.40527 1170.41" stroke="#6E62FF" style="stroke:#6E62FF;stroke:color(display-p3 0.4314 0.3843 1.0000);stroke-opacity:1;" stroke-width="0.4369" stroke-miterlimit="10"/>
<path opacity="0.5854" d="M2159.99 1029.34C2159.99 1029.34 1976.17 1318.5 1683.26 1318.5C1390.35 1318.5 1311.64 772.756 942.005 772.756C572.368 772.756 495.457 1158 -1.40527 1158" stroke="#6E62FF" style="stroke:#6E62FF;stroke:color(display-p3 0.4314 0.3843 1.0000);stroke-opacity:1;" stroke-width="0.4303" stroke-miterlimit="10"/>
<path opacity="0.561" d="M2159.99 1024.67C2159.99 1024.67 1976.17 1324.8 1683.26 1324.8C1390.35 1324.8 1311.64 763.04 942.005 763.04C572.368 763.04 495.457 1145.58 -1.40527 1145.58" stroke="#6E62FF" style="stroke:#6E62FF;stroke:color(display-p3 0.4314 0.3843 1.0000);stroke-opacity:1;" stroke-width="0.4237" stroke-miterlimit="10"/>
<path opacity="0.5366" d="M2159.99 1020.17C2159.99 1020.17 1976.17 1331.09 1683.26 1331.09C1390.35 1331.09 1311.64 753.143 942.005 753.143C572.368 753.143 495.457 1133.17 -1.40527 1133.17" stroke="#6E62FF" style="stroke:#6E62FF;stroke:color(display-p3 0.4314 0.3843 1.0000);stroke-opacity:1;" stroke-width="0.4171" stroke-miterlimit="10"/>
<path opacity="0.5122" d="M2159.99 1015.67C2159.99 1015.67 1976.17 1337.57 1683.26 1337.57C1390.35 1337.57 1311.64 743.247 942.005 743.247C572.368 743.247 495.457 1120.75 -1.40527 1120.75" stroke="#6E62FF" style="stroke:#6E62FF;stroke:color(display-p3 0.4314 0.3843 1.0000);stroke-opacity:1;" stroke-width="0.4104" stroke-miterlimit="10"/>
<path opacity="0.4878" d="M2159.99 1011.17C2159.99 1011.17 1976.17 1344.05 1683.26 1344.05C1390.35 1344.05 1311.64 733.35 942.005 733.35C572.368 733.35 495.457 1108.33 -1.40527 1108.33" stroke="#6E62FF" style="stroke:#6E62FF;stroke:color(display-p3 0.4314 0.3843 1.0000);stroke-opacity:1;" stroke-width="0.4038" stroke-miterlimit="10"/>
<path opacity="0.4634" d="M2159.99 1006.49C2159.99 1006.49 1976.17 1350.35 1683.26 1350.35C1390.35 1350.35 1311.64 723.454 942.005 723.454C572.368 723.454 495.457 1095.92 -1.40527 1095.92" stroke="#6E62FF" style="stroke:#6E62FF;stroke:color(display-p3 0.4314 0.3843 1.0000);stroke-opacity:1;" stroke-width="0.3972" stroke-miterlimit="10"/>
<path opacity="0.439" d="M2159.99 1001.99C2159.99 1001.99 1976.17 1356.83 1683.26 1356.83C1390.35 1356.83 1311.64 713.557 942.005 713.557C572.368 713.557 495.457 1083.5 -1.40527 1083.5" stroke="#6E62FF" style="stroke:#6E62FF;stroke:color(display-p3 0.4314 0.3843 1.0000);stroke-opacity:1;" stroke-width="0.3906" stroke-miterlimit="10"/>
<path opacity="0.4146" d="M2159.99 997.495C2159.99 997.495 1976.17 1363.12 1683.26 1363.12C1390.35 1363.12 1311.64 703.841 942.005 703.841C572.368 703.841 495.457 1070.91 -1.40527 1070.91" stroke="#6E62FF" style="stroke:#6E62FF;stroke:color(display-p3 0.4314 0.3843 1.0000);stroke-opacity:1;" stroke-width="0.384" stroke-miterlimit="10"/>
<path opacity="0.3902" d="M2159.99 992.997C2159.99 992.997 1976.17 1369.6 1683.26 1369.6C1390.35 1369.6 1311.64 693.945 942.005 693.945C572.368 693.945 495.457 1058.49 -1.40527 1058.49" stroke="#6E62FF" style="stroke:#6E62FF;stroke:color(display-p3 0.4314 0.3843 1.0000);stroke-opacity:1;" stroke-width="0.3773" stroke-miterlimit="10"/>
<path opacity="0.3659" d="M2159.99 988.498C2159.99 988.498 1976.17 1376.08 1683.26 1376.08C1390.35 1376.08 1311.64 684.048 942.005 684.048C572.368 684.048 495.457 1046.08 -1.40527 1046.08" stroke="#6E62FF" style="stroke:#6E62FF;stroke:color(display-p3 0.4314 0.3843 1.0000);stroke-opacity:1;" stroke-width="0.3707" stroke-miterlimit="10"/>
<path opacity="0.3415" d="M2159.99 983.819C2159.99 983.819 1976.17 1382.38 1683.26 1382.38C1390.35 1382.38 1311.64 674.15 942.005 674.15C572.368 674.15 495.457 1033.66 -1.40527 1033.66" stroke="#6E62FF" style="stroke:#6E62FF;stroke:color(display-p3 0.4314 0.3843 1.0000);stroke-opacity:1;" stroke-width="0.3641" stroke-miterlimit="10"/>
<path opacity="0.3171" d="M2159.99 979.321C2159.99 979.321 1976.17 1388.85 1683.26 1388.85C1390.35 1388.85 1311.64 664.255 942.005 664.255C572.368 664.255 495.457 1021.25 -1.40527 1021.25" stroke="#6E62FF" style="stroke:#6E62FF;stroke:color(display-p3 0.4314 0.3843 1.0000);stroke-opacity:1;" stroke-width="0.3575" stroke-miterlimit="10"/>
<path opacity="0.2927" d="M2159.99 974.824C2159.99 974.824 1976.17 1395.15 1683.26 1395.15C1390.35 1395.15 1311.64 654.359 942.005 654.359C572.368 654.359 495.637 1008.83 -1.40527 1008.83" stroke="#6E62FF" style="stroke:#6E62FF;stroke:color(display-p3 0.4314 0.3843 1.0000);stroke-opacity:1;" stroke-width="0.3509" stroke-miterlimit="10"/>
<path opacity="0.2683" d="M2159.99 970.325C2159.99 970.325 1976.17 1401.63 1683.26 1401.63C1390.35 1401.63 1311.64 644.642 942.005 644.642C572.368 644.642 495.457 996.415 -1.40527 996.415" stroke="#6E62FF" style="stroke:#6E62FF;stroke:color(display-p3 0.4314 0.3843 1.0000);stroke-opacity:1;" stroke-width="0.3442" stroke-miterlimit="10"/>
<path opacity="0.2439" d="M2159.99 965.647C2159.99 965.647 1976.17 1407.92 1683.26 1407.92C1390.35 1407.92 1311.64 634.746 942.005 634.746C572.368 634.746 495.457 983.999 -1.40527 983.999" stroke="#6E62FF" style="stroke:#6E62FF;stroke:color(display-p3 0.4314 0.3843 1.0000);stroke-opacity:1;" stroke-width="0.3376" stroke-miterlimit="10"/>
<path opacity="0.2195" d="M2159.99 961.148C2159.99 961.148 1976.17 1414.41 1683.26 1414.41C1390.35 1414.41 1311.64 624.849 942.005 624.849C572.368 624.849 495.457 971.583 -1.40527 971.583" stroke="#6E62FF" style="stroke:#6E62FF;stroke:color(display-p3 0.4314 0.3843 1.0000);stroke-opacity:1;" stroke-width="0.331" stroke-miterlimit="10"/>
<path opacity="0.1951" d="M2159.99 956.649C2159.99 956.649 1976.17 1420.89 1683.26 1420.89C1390.35 1420.89 1311.64 614.953 942.005 614.953C572.368 614.953 495.457 959.169 -1.40527 959.169" stroke="#6E62FF" style="stroke:#6E62FF;stroke:color(display-p3 0.4314 0.3843 1.0000);stroke-opacity:1;" stroke-width="0.3244" stroke-miterlimit="10"/>
<path opacity="0.1707" d="M2159.99 952.151C2159.99 952.151 1976.17 1427.17 1683.26 1427.17C1390.35 1427.17 1311.64 605.056 942.005 605.056C572.368 605.056 495.457 946.753 -1.40527 946.753" stroke="#6E62FF" style="stroke:#6E62FF;stroke:color(display-p3 0.4314 0.3843 1.0000);stroke-opacity:1;" stroke-width="0.3178" stroke-miterlimit="10"/>
<path opacity="0.1463" d="M2159.99 947.472C2159.99 947.472 1976.17 1433.48 1683.26 1433.48C1390.35 1433.48 1311.64 595.16 942.005 595.16C572.368 595.16 495.457 934.158 -1.40527 934.158" stroke="#6E62FF" style="stroke:#6E62FF;stroke:color(display-p3 0.4314 0.3843 1.0000);stroke-opacity:1;" stroke-width="0.3111" stroke-miterlimit="10"/>
<path opacity="0.122" d="M2159.99 942.975C2159.99 942.975 1976.17 1439.96 1683.26 1439.96C1390.35 1439.96 1311.64 585.443 942.005 585.443C572.368 585.443 495.637 921.922 -1.40527 921.922" stroke="#6E62FF" style="stroke:#6E62FF;stroke:color(display-p3 0.4314 0.3843 1.0000);stroke-opacity:1;" stroke-width="0.3045" stroke-miterlimit="10"/>
<path opacity="0.097561" d="M2159.99 938.476C2159.99 938.476 1976.17 1446.43 1683.26 1446.43C1390.35 1446.43 1311.64 575.547 942.005 575.547C572.368 575.547 495.457 909.326 -1.40527 909.326" stroke="#6E62FF" style="stroke:#6E62FF;stroke:color(display-p3 0.4314 0.3843 1.0000);stroke-opacity:1;" stroke-width="0.2979" stroke-miterlimit="10"/>
<path opacity="0.0731707" d="M2159.99 933.978C2159.99 933.978 1976.17 1452.91 1683.26 1452.91C1390.35 1452.91 1311.64 565.65 942.005 565.65C572.368 565.65 495.457 896.911 -1.40527 896.911" stroke="#6E62FF" style="stroke:#6E62FF;stroke:color(display-p3 0.4314 0.3843 1.0000);stroke-opacity:1;" stroke-width="0.2913" stroke-miterlimit="10"/>
<path opacity="0.0487805" d="M2159.99 929.479C2159.99 929.479 1976.17 1459.21 1683.26 1459.21C1390.35 1459.21 1311.64 555.754 942.005 555.754C572.368 555.754 495.457 884.494 -1.40527 884.494" stroke="#6E62FF" style="stroke:#6E62FF;stroke:color(display-p3 0.4314 0.3843 1.0000);stroke-opacity:1;" stroke-width="0.2847" stroke-miterlimit="10"/>
<path opacity="0.0243902" d="M2159.99 924.801C2159.99 924.801 1976.17 1465.51 1683.26 1465.51C1390.35 1465.51 1311.64 545.858 942.005 545.858C572.368 545.858 495.457 872.08 -1.40527 872.08" stroke="#6E62FF" style="stroke:#6E62FF;stroke:color(display-p3 0.4314 0.3843 1.0000);stroke-opacity:1;" stroke-width="0.278" stroke-miterlimit="10"/>
</g>
<mask id="mask1_1_10780" style="mask-type:luminance" maskUnits="userSpaceOnUse" x="-2" y="-290" width="1922" height="836">
<path d="M1920 -289.527H-1.40527V545.304H1920V-289.527Z" fill="white" style="fill:white;fill:white;fill-opacity:1;"/>
</mask>
<g mask="url(#mask1_1_10780)">
<g opacity="0.1">
<path d="M0.15918 219.204C0.15918 219.204 163.325 311.16 423.305 311.16C683.287 311.16 753.146 189.836 1081.23 189.836C1409.32 189.836 1477.43 453.67 1918.59 453.67" stroke="#6E62FF" style="stroke:#6E62FF;stroke:color(display-p3 0.4314 0.3843 1.0000);stroke-opacity:1;" stroke-width="0.5428" stroke-miterlimit="10"/>
<path opacity="0.9756" d="M0.15918 215.192C0.15918 215.192 171.459 316.937 431.28 316.937C691.262 316.937 753.146 178.28 1081.23 178.28C1409.32 178.28 1477.43 442.755 1918.59 442.755" stroke="#6E62FF" style="stroke:#6E62FF;stroke:color(display-p3 0.4314 0.3843 1.0000);stroke-opacity:1;" stroke-width="0.5362" stroke-miterlimit="10"/>
<path opacity="0.9512" d="M0.15918 211.179C0.15918 211.179 179.434 322.714 439.416 322.714C699.396 322.714 753.146 166.564 1081.23 166.564C1409.32 166.564 1477.43 431.682 1918.59 431.682" stroke="#6E62FF" style="stroke:#6E62FF;stroke:color(display-p3 0.4314 0.3843 1.0000);stroke-opacity:1;" stroke-width="0.5296" stroke-miterlimit="10"/>
<path opacity="0.9268" d="M0.15918 207.168C0.15918 207.168 187.568 328.492 447.55 328.492C707.53 328.492 753.306 155.01 1081.39 155.01C1409.49 155.01 1477.58 420.61 1918.75 420.61" stroke="#6E62FF" style="stroke:#6E62FF;stroke:color(display-p3 0.4314 0.3843 1.0000);stroke-opacity:1;" stroke-width="0.523" stroke-miterlimit="10"/>
<path opacity="0.9024" d="M0.15918 202.994C0.15918 202.994 195.543 333.948 455.525 333.948C715.505 333.948 753.146 142.974 1081.23 142.974C1409.32 142.974 1477.43 409.215 1918.59 409.215" stroke="#6E62FF" style="stroke:#6E62FF;stroke:color(display-p3 0.4314 0.3843 1.0000);stroke-opacity:1;" stroke-width="0.5164" stroke-miterlimit="10"/>
<path opacity="0.878" d="M0.15918 198.983C0.15918 198.983 203.677 339.726 463.659 339.726C723.639 339.726 753.146 131.419 1081.39 131.419C1409.64 131.419 1477.58 398.302 1918.75 398.302" stroke="#6E62FF" style="stroke:#6E62FF;stroke:color(display-p3 0.4314 0.3843 1.0000);stroke-opacity:1;" stroke-width="0.5097" stroke-miterlimit="10"/>
<path opacity="0.8537" d="M0.15918 194.97C0.15918 194.97 211.653 345.503 471.634 345.503C731.614 345.503 753.146 119.704 1081.23 119.704C1409.32 119.704 1477.43 387.228 1918.59 387.228" stroke="#6E62FF" style="stroke:#6E62FF;stroke:color(display-p3 0.4314 0.3843 1.0000);stroke-opacity:1;" stroke-width="0.5031" stroke-miterlimit="10"/>
<path opacity="0.8293" d="M0.15918 190.958C0.15918 190.958 219.787 351.28 479.768 351.28C739.748 351.28 753.146 108.149 1081.23 108.149C1409.32 108.149 1477.43 376.155 1918.59 376.155" stroke="#6E62FF" style="stroke:#6E62FF;stroke:color(display-p3 0.4314 0.3843 1.0000);stroke-opacity:1;" stroke-width="0.4965" stroke-miterlimit="10"/>
<path opacity="0.8049" d="M0.15918 186.946C0.15918 186.946 227.922 357.059 487.902 357.059C747.884 357.059 753.306 96.5947 1081.39 96.5947C1409.49 96.5947 1477.58 365.083 1918.59 365.083" stroke="#6E62FF" style="stroke:#6E62FF;stroke:color(display-p3 0.4314 0.3843 1.0000);stroke-opacity:1;" stroke-width="0.4899" stroke-miterlimit="10"/>
<path opacity="0.7805" d="M0.15918 182.774C0.15918 182.774 235.896 362.515 495.877 362.515C755.857 362.515 753.146 84.5586 1081.23 84.5586C1409.32 84.5586 1477.43 353.848 1918.59 353.848" stroke="#6E62FF" style="stroke:#6E62FF;stroke:color(display-p3 0.4314 0.3843 1.0000);stroke-opacity:1;" stroke-width="0.4833" stroke-miterlimit="10"/>
<path opacity="0.7561" d="M0.15918 178.761C0.15918 178.761 244.031 368.291 504.011 368.291C763.993 368.291 753.306 73.0029 1081.39 73.0029C1409.49 73.0029 1477.58 342.935 1918.75 342.935" stroke="#6E62FF" style="stroke:#6E62FF;stroke:color(display-p3 0.4314 0.3843 1.0000);stroke-opacity:1;" stroke-width="0.4766" stroke-miterlimit="10"/>
<path opacity="0.7317" d="M0.15918 174.749C0.15918 174.749 252.006 374.068 511.986 374.068C771.966 374.068 753.146 61.2881 1081.23 61.2881C1409.32 61.2881 1477.43 331.701 1918.59 331.701" stroke="#6E62FF" style="stroke:#6E62FF;stroke:color(display-p3 0.4314 0.3843 1.0000);stroke-opacity:1;" stroke-width="0.47" stroke-miterlimit="10"/>
<path opacity="0.7073" d="M0.15918 170.737C0.15918 170.737 260.14 379.846 520.12 379.846C780.102 379.846 753.146 49.7334 1081.23 49.7334C1409.32 49.7334 1477.43 320.788 1918.59 320.788" stroke="#6E62FF" style="stroke:#6E62FF;stroke:color(display-p3 0.4314 0.3843 1.0000);stroke-opacity:1;" stroke-width="0.4634" stroke-miterlimit="10"/>
<path opacity="0.6829" d="M0.15918 166.565C0.15918 166.565 268.274 385.463 528.096 385.463C788.077 385.463 753.146 37.8574 1081.23 37.8574C1409.32 37.8574 1477.43 309.555 1918.59 309.555" stroke="#6E62FF" style="stroke:#6E62FF;stroke:color(display-p3 0.4314 0.3843 1.0000);stroke-opacity:1;" stroke-width="0.4568" stroke-miterlimit="10"/>
<path opacity="0.6585" d="M0.15918 162.553C0.15918 162.553 276.249 391.08 536.23 391.08C796.211 391.08 753.146 26.1426 1081.23 26.1426C1409.32 26.1426 1477.43 298.481 1918.59 298.481" stroke="#6E62FF" style="stroke:#6E62FF;stroke:color(display-p3 0.4314 0.3843 1.0000);stroke-opacity:1;" stroke-width="0.4502" stroke-miterlimit="10"/>
<path opacity="0.6341" d="M0.15918 158.541C0.15918 158.541 284.383 396.858 544.365 396.858C804.345 396.858 753.306 14.5879 1081.39 14.5879C1409.49 14.5879 1477.58 287.569 1918.75 287.569" stroke="#6E62FF" style="stroke:#6E62FF;stroke:color(display-p3 0.4314 0.3843 1.0000);stroke-opacity:1;" stroke-width="0.4435" stroke-miterlimit="10"/>
<path opacity="0.6098" d="M0.15918 154.528C0.15918 154.528 292.359 402.635 552.339 402.635C812.32 402.635 753.146 2.87207 1081.23 2.87207C1409.32 2.87207 1477.43 276.335 1918.59 276.335" stroke="#6E62FF" style="stroke:#6E62FF;stroke:color(display-p3 0.4314 0.3843 1.0000);stroke-opacity:1;" stroke-width="0.4369" stroke-miterlimit="10"/>
<path opacity="0.5854" d="M0.15918 150.517C0.15918 150.517 300.493 408.412 560.474 408.412C820.454 408.412 753.146 -8.68164 1081.39 -8.68164C1409.64 -8.68164 1477.58 265.423 1918.75 265.423" stroke="#6E62FF" style="stroke:#6E62FF;stroke:color(display-p3 0.4314 0.3843 1.0000);stroke-opacity:1;" stroke-width="0.4303" stroke-miterlimit="10"/>
<path opacity="0.561" d="M0.15918 146.345C0.15918 146.345 308.468 414.03 568.448 414.03C828.429 414.03 753.146 -20.5576 1081.23 -20.5576C1409.32 -20.5576 1477.43 254.189 1918.59 254.189" stroke="#6E62FF" style="stroke:#6E62FF;stroke:color(display-p3 0.4314 0.3843 1.0000);stroke-opacity:1;" stroke-width="0.4237" stroke-miterlimit="10"/>
<path opacity="0.5366" d="M0.15918 142.332C0.15918 142.332 316.602 419.646 576.583 419.646C836.563 419.646 753.146 -32.2734 1081.23 -32.2734C1409.32 -32.2734 1477.58 243.115 1918.59 243.115" stroke="#6E62FF" style="stroke:#6E62FF;stroke:color(display-p3 0.4314 0.3843 1.0000);stroke-opacity:1;" stroke-width="0.4171" stroke-miterlimit="10"/>
<path opacity="0.5122" d="M0.15918 138.32C0.15918 138.32 324.736 425.423 584.717 425.423C844.697 425.423 753.306 -43.9883 1081.39 -43.9883C1409.49 -43.9883 1477.58 231.881 1918.75 231.881" stroke="#6E62FF" style="stroke:#6E62FF;stroke:color(display-p3 0.4314 0.3843 1.0000);stroke-opacity:1;" stroke-width="0.4104" stroke-miterlimit="10"/>
<path opacity="0.4878" d="M0.15918 134.308C0.15918 134.308 332.711 431.202 592.692 431.202C852.673 431.202 753.146 -55.543 1081.23 -55.543C1409.32 -55.543 1477.43 220.969 1918.59 220.969" stroke="#6E62FF" style="stroke:#6E62FF;stroke:color(display-p3 0.4314 0.3843 1.0000);stroke-opacity:1;" stroke-width="0.4038" stroke-miterlimit="10"/>
<path opacity="0.4634" d="M0.15918 130.135C0.15918 130.135 340.846 436.818 600.826 436.818C860.808 436.818 753.146 -67.4189 1081.39 -67.4189C1409.64 -67.4189 1477.58 209.735 1918.75 209.735" stroke="#6E62FF" style="stroke:#6E62FF;stroke:color(display-p3 0.4314 0.3843 1.0000);stroke-opacity:1;" stroke-width="0.3972" stroke-miterlimit="10"/>
<path opacity="0.439" d="M0.15918 126.123C0.15918 126.123 348.82 442.595 608.802 442.595C868.782 442.595 753.146 -78.9736 1081.23 -78.9736C1409.32 -78.9736 1477.43 198.821 1918.59 198.821" stroke="#6E62FF" style="stroke:#6E62FF;stroke:color(display-p3 0.4314 0.3843 1.0000);stroke-opacity:1;" stroke-width="0.3906" stroke-miterlimit="10"/>
<path opacity="0.4146" d="M0.15918 122.112C0.15918 122.112 356.956 448.212 616.936 448.212C876.917 448.212 753.146 -90.6885 1081.23 -90.6885C1409.32 -90.6885 1477.43 187.589 1918.59 187.589" stroke="#6E62FF" style="stroke:#6E62FF;stroke:color(display-p3 0.4314 0.3843 1.0000);stroke-opacity:1;" stroke-width="0.384" stroke-miterlimit="10"/>
<path opacity="0.3902" d="M0.15918 118.099C0.15918 118.099 365.09 453.989 625.07 453.989C885.051 453.989 753.306 -102.404 1081.39 -102.404C1409.49 -102.404 1477.58 176.515 1918.75 176.515" stroke="#6E62FF" style="stroke:#6E62FF;stroke:color(display-p3 0.4314 0.3843 1.0000);stroke-opacity:1;" stroke-width="0.3773" stroke-miterlimit="10"/>
<path opacity="0.3659" d="M0.15918 114.087C0.15918 114.087 373.223 459.767 633.205 459.767C893.185 459.767 753.306 -113.959 1081.39 -113.959C1409.49 -113.959 1477.58 165.602 1918.75 165.602" stroke="#6E62FF" style="stroke:#6E62FF;stroke:color(display-p3 0.4314 0.3843 1.0000);stroke-opacity:1;" stroke-width="0.3707" stroke-miterlimit="10"/>
<path opacity="0.3415" d="M0.15918 109.915C0.15918 109.915 381.199 465.384 641.179 465.384C901.16 465.384 753.306 -125.834 1081.39 -125.834C1409.49 -125.834 1477.58 154.369 1918.75 154.369" stroke="#6E62FF" style="stroke:#6E62FF;stroke:color(display-p3 0.4314 0.3843 1.0000);stroke-opacity:1;" stroke-width="0.3641" stroke-miterlimit="10"/>
<path opacity="0.3171" d="M0.15918 105.902C0.15918 105.902 389.174 471.161 649.154 471.161C909.135 471.161 753.146 -137.39 1081.23 -137.39C1409.32 -137.39 1477.43 143.456 1918.59 143.456" stroke="#6E62FF" style="stroke:#6E62FF;stroke:color(display-p3 0.4314 0.3843 1.0000);stroke-opacity:1;" stroke-width="0.3575" stroke-miterlimit="10"/>
<path opacity="0.2927" d="M0.15918 101.89C0.15918 101.89 397.308 476.778 657.288 476.778C917.269 476.778 753.146 -149.265 1081.39 -149.265C1409.64 -149.265 1477.58 132.061 1918.75 132.061" stroke="#6E62FF" style="stroke:#6E62FF;stroke:color(display-p3 0.4314 0.3843 1.0000);stroke-opacity:1;" stroke-width="0.3509" stroke-miterlimit="10"/>
<path opacity="0.2683" d="M0.15918 97.8781C0.15918 97.8781 405.283 482.555 665.263 482.555C925.245 482.555 753.146 -160.82 1081.23 -160.82C1409.32 -160.82 1477.58 121.148 1918.59 121.148" stroke="#6E62FF" style="stroke:#6E62FF;stroke:color(display-p3 0.4314 0.3843 1.0000);stroke-opacity:1;" stroke-width="0.3442" stroke-miterlimit="10"/>
<path opacity="0.2439" d="M0.15918 93.7062C0.15918 93.7062 413.417 488.173 673.397 488.173C933.379 488.173 753.146 -172.535 1081.23 -172.535C1409.32 -172.535 1477.43 110.075 1918.59 110.075" stroke="#6E62FF" style="stroke:#6E62FF;stroke:color(display-p3 0.4314 0.3843 1.0000);stroke-opacity:1;" stroke-width="0.3376" stroke-miterlimit="10"/>
<path opacity="0.2195" d="M0.15918 89.6934C0.15918 89.6934 421.551 493.95 681.532 493.95C941.513 493.95 753.306 -184.251 1081.39 -184.251C1409.49 -184.251 1477.58 99.0014 1918.75 99.0014" stroke="#6E62FF" style="stroke:#6E62FF;stroke:color(display-p3 0.4314 0.3843 1.0000);stroke-opacity:1;" stroke-width="0.331" stroke-miterlimit="10"/>
<path opacity="0.1951" d="M0.15918 85.6816C0.15918 85.6816 429.526 499.727 689.508 499.727C949.488 499.727 753.146 -195.805 1081.23 -195.805C1409.32 -195.805 1477.43 87.9283 1918.59 87.9283" stroke="#6E62FF" style="stroke:#6E62FF;stroke:color(display-p3 0.4314 0.3843 1.0000);stroke-opacity:1;" stroke-width="0.3244" stroke-miterlimit="10"/>
<path opacity="0.1707" d="M0.15918 81.6692C0.15918 81.6692 437.66 505.343 697.642 505.343C957.622 505.343 753.146 -207.681 1081.39 -207.681C1409.64 -207.681 1477.58 76.6943 1918.75 76.6943" stroke="#6E62FF" style="stroke:#6E62FF;stroke:color(display-p3 0.4314 0.3843 1.0000);stroke-opacity:1;" stroke-width="0.3178" stroke-miterlimit="10"/>
<path opacity="0.1463" d="M0.15918 77.4973C0.15918 77.4973 445.635 510.962 705.617 510.962C965.597 510.962 753.146 -219.396 1081.23 -219.396C1409.32 -219.396 1477.43 65.6216 1918.59 65.6216" stroke="#6E62FF" style="stroke:#6E62FF;stroke:color(display-p3 0.4314 0.3843 1.0000);stroke-opacity:1;" stroke-width="0.3111" stroke-miterlimit="10"/>
<path opacity="0.122" d="M0.15918 73.4849C0.15918 73.4849 453.769 516.738 713.751 516.738C973.731 516.738 753.146 -231.111 1081.23 -231.111C1409.32 -231.111 1477.43 54.548 1918.59 54.548" stroke="#6E62FF" style="stroke:#6E62FF;stroke:color(display-p3 0.4314 0.3843 1.0000);stroke-opacity:1;" stroke-width="0.3045" stroke-miterlimit="10"/>
<path opacity="0.097561" d="M0.15918 69.4723C0.15918 69.4723 461.905 522.514 721.885 522.514C981.866 522.514 753.306 -242.667 1081.39 -242.667C1409.49 -242.667 1477.58 43.4741 1918.75 43.4741" stroke="#6E62FF" style="stroke:#6E62FF;stroke:color(display-p3 0.4314 0.3843 1.0000);stroke-opacity:1;" stroke-width="0.2979" stroke-miterlimit="10"/>
<path opacity="0.0731707" d="M0.15918 65.4609C0.15918 65.4609 469.879 528.293 729.86 528.293C990 528.133 753.306 -254.382 1081.39 -254.382C1409.49 -254.382 1477.58 32.4013 1918.75 32.4013" stroke="#6E62FF" style="stroke:#6E62FF;stroke:color(display-p3 0.4314 0.3843 1.0000);stroke-opacity:1;" stroke-width="0.2913" stroke-miterlimit="10"/>
<path opacity="0.0487805" d="M0.15918 61.449C0.15918 61.449 478.014 533.91 737.994 533.91C997.975 533.91 753.306 -266.096 1081.39 -266.096C1409.49 -266.096 1477.58 21.3283 1918.75 21.3283" stroke="#6E62FF" style="stroke:#6E62FF;stroke:color(display-p3 0.4314 0.3843 1.0000);stroke-opacity:1;" stroke-width="0.2847" stroke-miterlimit="10"/>
<path opacity="0.0243902" d="M0.15918 57.276C0.15918 57.276 485.988 539.526 745.969 539.526C1005.95 539.526 753.146 -277.812 1081.23 -277.812C1409.32 -277.812 1477.43 10.2547 1918.59 10.2547" stroke="#6E62FF" style="stroke:#6E62FF;stroke:color(display-p3 0.4314 0.3843 1.0000);stroke-opacity:1;" stroke-width="0.278" stroke-miterlimit="10"/>
</g>
</g>
<path d="M2018.01 -382.146C1646.22 -495.885 1284.87 -225.331 1134.18 46.1862C999.344 288.263 960.821 661.137 1129.57 816.38C1253.05 929.558 1405.87 852.494 1624.94 1015.84C1767.23 1121.77 1757.25 1195.62 1844.27 1219.15C2052.64 1275.59 2428.48 942.591 2497.03 546.143C2554.58 214.17 2414.07 -260.78 2018.01 -382.146Z" fill="#009BCC" style="fill:#009BCC;fill:color(display-p3 0.0000 0.6080 0.8000);fill-opacity:1;"/>
</g>
</g>
<defs>
<clipPath id="clip0_1_10780">
<rect width="1920" height="1080" fill="white" style="fill:white;fill:white;fill-opacity:1;"/>
</clipPath>
</defs>
</svg>
