<svg width="18" height="18" viewBox="0 0 18 18" fill="none" xmlns="http://www.w3.org/2000/svg">
<path fill-rule="evenodd" clip-rule="evenodd" d="M9.76623 0.982572C10.0092 1.08325 10.2299 1.23081 10.4159 1.41682L16.5839 7.58382C16.77 7.76976 16.9177 7.99057 17.0185 8.23362C17.1192 8.47668 17.1711 8.73721 17.1711 9.00032C17.1711 9.26344 17.1192 9.52397 17.0185 9.76702C16.9177 10.0101 16.77 10.2309 16.5839 10.4168L10.4159 16.5838C10.2299 16.7698 10.0092 16.9174 9.76623 17.0181C9.52327 17.1187 9.26285 17.1706 8.99986 17.1706C8.73686 17.1706 8.47645 17.1187 8.23348 17.0181C7.99052 16.9174 7.76977 16.7698 7.58386 16.5838L1.41586 10.4168C1.22969 10.2309 1.08201 10.0101 0.981243 9.76702C0.880478 9.52397 0.828613 9.26344 0.828613 9.00032C0.828613 8.73721 0.880478 8.47668 0.981243 8.23362C1.08201 7.99057 1.22969 7.76976 1.41586 7.58382L7.58386 1.41682C7.76977 1.23081 7.99052 1.08325 8.23348 0.982572C8.47645 0.881896 8.73686 0.830078 8.99986 0.830078C9.26285 0.830078 9.52327 0.881896 9.76623 0.982572ZM8.29275 10.7069C8.48028 10.8945 8.73464 10.9998 8.99986 10.9998C9.26507 10.9998 9.51943 10.8945 9.70696 10.7069C9.8945 10.5194 9.99986 10.265 9.99986 9.99982V4.99982C9.99986 4.7346 9.8945 4.48025 9.70696 4.29271C9.51943 4.10517 9.26507 3.99982 8.99986 3.99982C8.73464 3.99982 8.48028 4.10517 8.29275 4.29271C8.10521 4.48025 7.99986 4.7346 7.99986 4.99982V9.99982C7.99986 10.265 8.10521 10.5194 8.29275 10.7069ZM8.29275 13.7069C8.48028 13.8945 8.73464 13.9998 8.99986 13.9998C9.26507 13.9998 9.51943 13.8945 9.70696 13.7069C9.8945 13.5194 9.99986 13.265 9.99986 12.9998C9.99986 12.7346 9.8945 12.4802 9.70696 12.2927C9.51943 12.1052 9.26507 11.9998 8.99986 11.9998C8.73464 11.9998 8.48028 12.1052 8.29275 12.2927C8.10521 12.4802 7.99986 12.7346 7.99986 12.9998C7.99986 13.265 8.10521 13.5194 8.29275 13.7069Z" fill="#DE350B"/>
</svg>
