<svg width="142" height="15" viewBox="0 0 142 15" fill="none" xmlns="http://www.w3.org/2000/svg">
<path d="M1.034 14C0.782 14 0.578 13.94 0.422 13.82C0.266 13.7 0.188 13.556 0.188 13.388V1.472C0.188 1.268 0.278 1.112 0.458 1.004C0.638 0.896 0.83 0.842 1.034 0.842H4.31C4.958 0.842 5.558 0.926 6.11 1.094C6.662 1.262 7.106 1.574 7.442 2.03C7.778 2.474 7.946 3.116 7.946 3.956C7.946 4.712 7.808 5.336 7.532 5.828C7.268 6.32 6.896 6.668 6.416 6.872C6.788 7.016 7.112 7.208 7.388 7.448C7.664 7.676 7.88 7.988 8.036 8.384C8.192 8.768 8.27 9.266 8.27 9.878V10.22C8.27 11.144 8.114 11.882 7.802 12.434C7.49 12.986 7.064 13.388 6.524 13.64C5.984 13.88 5.372 14 4.688 14H1.034ZM2.078 12.308H4.328C4.976 12.308 5.474 12.134 5.822 11.786C6.182 11.426 6.362 10.856 6.362 10.076V9.788C6.362 8.996 6.182 8.438 5.822 8.114C5.474 7.79 4.976 7.628 4.328 7.628H2.078V12.308ZM2.078 6.116H4.238C4.85 6.116 5.3 5.96 5.588 5.648C5.888 5.336 6.038 4.874 6.038 4.262C6.038 3.854 5.96 3.524 5.804 3.272C5.66 3.02 5.45 2.834 5.174 2.714C4.898 2.594 4.574 2.534 4.202 2.534H2.078V6.116ZM10.9832 14C10.7792 14 10.5872 13.946 10.4072 13.838C10.2272 13.73 10.1372 13.574 10.1372 13.37V1.454C10.1372 1.238 10.2332 1.082 10.4252 0.985999C10.6292 0.89 10.8512 0.842 11.0912 0.842C11.3312 0.842 11.5472 0.89 11.7392 0.985999C11.9432 1.082 12.0452 1.238 12.0452 1.454V12.308H16.7252C16.9172 12.308 17.0612 12.398 17.1572 12.578C17.2532 12.746 17.3012 12.938 17.3012 13.154C17.3012 13.358 17.2532 13.55 17.1572 13.73C17.0612 13.91 16.9172 14 16.7252 14H10.9832ZM22.3962 14.108C21.6282 14.108 20.9322 13.976 20.3082 13.712C19.6842 13.448 19.1922 13.022 18.8322 12.434C18.4722 11.846 18.2922 11.066 18.2922 10.094V1.454C18.2922 1.238 18.3882 1.082 18.5802 0.985999C18.7722 0.89 18.9942 0.842 19.2462 0.842C19.4742 0.842 19.6902 0.89 19.8942 0.985999C20.0982 1.082 20.2002 1.238 20.2002 1.454V10.094C20.2002 10.886 20.3922 11.474 20.7762 11.858C21.1602 12.23 21.7002 12.416 22.3962 12.416C23.0802 12.416 23.6202 12.23 24.0162 11.858C24.4122 11.474 24.6102 10.886 24.6102 10.094V1.454C24.6102 1.238 24.7062 1.082 24.8982 0.985999C25.0902 0.89 25.3122 0.842 25.5642 0.842C25.7922 0.842 26.0082 0.89 26.2122 0.985999C26.4162 1.082 26.5182 1.238 26.5182 1.454V10.094C26.5182 11.066 26.3322 11.846 25.9602 12.434C25.6002 13.022 25.1082 13.448 24.4842 13.712C23.8602 13.976 23.1642 14.108 22.3962 14.108ZM29.6688 14C29.4648 14 29.2728 13.946 29.0928 13.838C28.9128 13.73 28.8228 13.574 28.8228 13.37V1.472C28.8228 1.268 28.9128 1.112 29.0928 1.004C29.2728 0.896 29.4648 0.842 29.6688 0.842H36.0768C36.3048 0.842 36.4668 0.932 36.5628 1.112C36.6588 1.292 36.7068 1.478 36.7068 1.67C36.7068 1.898 36.6528 2.102 36.5448 2.282C36.4368 2.45 36.2808 2.534 36.0768 2.534H30.7308V6.656H33.5028C33.7068 6.656 33.8628 6.734 33.9708 6.89C34.0788 7.046 34.1328 7.226 34.1328 7.43C34.1328 7.598 34.0848 7.766 33.9888 7.934C33.8928 8.09 33.7308 8.168 33.5028 8.168H30.7308V12.308H36.0768C36.2808 12.308 36.4368 12.392 36.5448 12.56C36.6528 12.728 36.7068 12.932 36.7068 13.172C36.7068 13.364 36.6588 13.55 36.5628 13.73C36.4668 13.91 36.3048 14 36.0768 14H29.6688ZM41.9397 14.108C41.1717 14.108 40.4817 13.976 39.8697 13.712C39.2697 13.448 38.7897 13.022 38.4297 12.434C38.0817 11.846 37.9077 11.066 37.9077 10.094V4.856C37.9077 3.884 38.0817 3.104 38.4297 2.516C38.7897 1.928 39.2697 1.502 39.8697 1.238C40.4817 0.974 41.1717 0.842 41.9397 0.842C42.6957 0.842 43.3797 0.974 43.9917 1.238C44.6037 1.502 45.0897 1.928 45.4497 2.516C45.8097 3.104 45.9897 3.884 45.9897 4.856V10.094C45.9897 11.066 45.8097 11.846 45.4497 12.434C45.0897 13.022 44.6037 13.448 43.9917 13.712C43.3797 13.976 42.6957 14.108 41.9397 14.108ZM41.9397 12.416C42.5997 12.416 43.1217 12.23 43.5057 11.858C43.8897 11.474 44.0817 10.886 44.0817 10.094V4.856C44.0817 4.064 43.8897 3.482 43.5057 3.11C43.1337 2.726 42.6117 2.534 41.9397 2.534C41.2677 2.534 40.7397 2.726 40.3557 3.11C39.9837 3.482 39.7977 4.064 39.7977 4.856V10.094C39.7977 10.886 39.9837 11.474 40.3557 11.858C40.7397 12.23 41.2677 12.416 41.9397 12.416ZM52.081 14.108C51.361 14.108 50.695 13.976 50.083 13.712C49.483 13.448 49.003 13.022 48.643 12.434C48.283 11.846 48.103 11.066 48.103 10.094V4.856C48.103 3.884 48.283 3.104 48.643 2.516C49.003 1.928 49.489 1.502 50.101 1.238C50.713 0.974 51.379 0.842 52.099 0.842C52.927 0.842 53.641 0.986 54.241 1.274C54.853 1.55 55.327 1.934 55.663 2.426C56.011 2.906 56.185 3.464 56.185 4.1C56.185 4.508 56.107 4.778 55.951 4.91C55.795 5.03 55.555 5.09 55.231 5.09C54.943 5.09 54.715 5.042 54.547 4.946C54.379 4.838 54.289 4.676 54.277 4.46C54.265 4.304 54.235 4.118 54.187 3.902C54.139 3.686 54.043 3.476 53.899 3.272C53.767 3.056 53.563 2.882 53.287 2.75C53.011 2.606 52.633 2.534 52.153 2.534C51.457 2.534 50.923 2.726 50.551 3.11C50.179 3.482 49.993 4.064 49.993 4.856V10.094C49.993 10.886 50.179 11.474 50.551 11.858C50.935 12.23 51.487 12.416 52.207 12.416C52.663 12.416 53.023 12.35 53.287 12.218C53.563 12.074 53.767 11.9 53.899 11.696C54.031 11.48 54.121 11.258 54.169 11.03C54.217 10.79 54.253 10.574 54.277 10.382C54.289 10.154 54.379 9.992 54.547 9.896C54.727 9.8 54.949 9.752 55.213 9.752C55.549 9.752 55.795 9.818 55.951 9.95C56.107 10.082 56.185 10.346 56.185 10.742C56.185 11.39 56.011 11.972 55.663 12.488C55.327 12.992 54.853 13.388 54.241 13.676C53.629 13.964 52.909 14.108 52.081 14.108ZM64.8828 14.144C64.1028 14.144 63.4128 14.03 62.8128 13.802C62.2128 13.574 61.7448 13.298 61.4088 12.974C61.0728 12.638 60.9048 12.32 60.9048 12.02C60.9048 11.876 60.9408 11.726 61.0128 11.57C61.0968 11.414 61.1988 11.282 61.3188 11.174C61.4508 11.054 61.5888 10.994 61.7328 10.994C61.9008 10.994 62.0568 11.066 62.2008 11.21C62.3568 11.342 62.5428 11.504 62.7588 11.696C62.9748 11.888 63.2448 12.056 63.5688 12.2C63.8928 12.344 64.3068 12.416 64.8108 12.416C65.2428 12.416 65.6268 12.35 65.9628 12.218C66.3108 12.074 66.5808 11.864 66.7728 11.588C66.9768 11.3 67.0788 10.94 67.0788 10.508C67.0788 10.052 66.9708 9.674 66.7548 9.374C66.5508 9.074 66.2688 8.822 65.9088 8.618C65.5608 8.414 65.1828 8.228 64.7748 8.06C64.3668 7.892 63.9528 7.712 63.5328 7.52C63.1128 7.328 62.7288 7.1 62.3808 6.836C62.0328 6.56 61.7508 6.218 61.5348 5.81C61.3308 5.39 61.2288 4.868 61.2288 4.244C61.2288 3.584 61.3488 3.032 61.5888 2.588C61.8408 2.144 62.1708 1.79 62.5788 1.526C62.9868 1.262 63.4368 1.076 63.9288 0.967999C64.4208 0.847999 64.9068 0.788 65.3868 0.788C65.6868 0.788 66.0168 0.812 66.3768 0.86C66.7488 0.895999 67.1088 0.967999 67.4568 1.076C67.8048 1.172 68.0928 1.304 68.3208 1.472C68.5488 1.64 68.6628 1.844 68.6628 2.084C68.6628 2.204 68.6328 2.348 68.5728 2.516C68.5128 2.672 68.4228 2.81 68.3028 2.93C68.1948 3.05 68.0508 3.11 67.8708 3.11C67.7148 3.11 67.5408 3.056 67.3488 2.948C67.1568 2.828 66.9048 2.714 66.5928 2.606C66.2928 2.486 65.8908 2.426 65.3868 2.426C64.9548 2.426 64.5648 2.486 64.2168 2.606C63.8808 2.726 63.6168 2.906 63.4248 3.146C63.2328 3.374 63.1368 3.68 63.1368 4.064C63.1368 4.448 63.2388 4.766 63.4428 5.018C63.6588 5.258 63.9408 5.468 64.2888 5.648C64.6368 5.816 65.0148 5.978 65.4228 6.134C65.8428 6.29 66.2568 6.476 66.6648 6.692C67.0848 6.896 67.4688 7.148 67.8168 7.448C68.1768 7.748 68.4588 8.132 68.6628 8.6C68.8788 9.056 68.9868 9.626 68.9868 10.31C68.9868 11.174 68.8068 11.894 68.4468 12.47C68.0988 13.034 67.6128 13.454 66.9888 13.73C66.3768 14.006 65.6748 14.144 64.8828 14.144ZM74.6702 14.108C73.9022 14.108 73.2122 13.976 72.6002 13.712C72.0002 13.448 71.5202 13.022 71.1602 12.434C70.8122 11.846 70.6382 11.066 70.6382 10.094V4.856C70.6382 3.884 70.8122 3.104 71.1602 2.516C71.5202 1.928 72.0002 1.502 72.6002 1.238C73.2122 0.974 73.9022 0.842 74.6702 0.842C75.4262 0.842 76.1102 0.974 76.7222 1.238C77.3342 1.502 77.8202 1.928 78.1802 2.516C78.5402 3.104 78.7202 3.884 78.7202 4.856V10.094C78.7202 11.066 78.5402 11.846 78.1802 12.434C77.8202 13.022 77.3342 13.448 76.7222 13.712C76.1102 13.976 75.4262 14.108 74.6702 14.108ZM74.6702 12.416C75.3302 12.416 75.8522 12.23 76.2362 11.858C76.6202 11.474 76.8122 10.886 76.8122 10.094V4.856C76.8122 4.064 76.6202 3.482 76.2362 3.11C75.8642 2.726 75.3422 2.534 74.6702 2.534C73.9982 2.534 73.4702 2.726 73.0862 3.11C72.7142 3.482 72.5282 4.064 72.5282 4.856V10.094C72.5282 10.886 72.7142 11.474 73.0862 11.858C73.4702 12.23 73.9982 12.416 74.6702 12.416ZM81.9135 14C81.6735 14 81.4515 13.952 81.2475 13.856C81.0555 13.748 80.9595 13.586 80.9595 13.37V1.472C80.9595 1.268 81.0495 1.112 81.2295 1.004C81.4095 0.896 81.6015 0.842 81.8055 0.842H88.1235C88.3395 0.842 88.4955 0.932 88.5915 1.112C88.6875 1.292 88.7355 1.478 88.7355 1.67C88.7355 1.898 88.6815 2.102 88.5735 2.282C88.4775 2.45 88.3275 2.534 88.1235 2.534H82.8675V6.656H85.6575C85.8615 6.656 86.0115 6.734 86.1075 6.89C86.2155 7.046 86.2695 7.226 86.2695 7.43C86.2695 7.598 86.2215 7.766 86.1255 7.934C86.0295 8.09 85.8735 8.168 85.6575 8.168H82.8675V13.37C82.8675 13.586 82.7655 13.748 82.5615 13.856C82.3695 13.952 82.1535 14 81.9135 14ZM93.3958 14C93.1558 14 92.9338 13.946 92.7298 13.838C92.5378 13.73 92.4418 13.574 92.4418 13.37V2.588H89.6518C89.4598 2.588 89.3098 2.498 89.2018 2.318C89.0938 2.138 89.0398 1.934 89.0398 1.706C89.0398 1.49 89.0878 1.292 89.1838 1.112C89.2798 0.932 89.4358 0.842 89.6518 0.842H97.1218C97.3498 0.842 97.5118 0.932 97.6078 1.112C97.7038 1.292 97.7518 1.484 97.7518 1.688C97.7518 1.928 97.6978 2.138 97.5898 2.318C97.4938 2.498 97.3378 2.588 97.1218 2.588H94.3498V13.37C94.3498 13.574 94.2478 13.73 94.0438 13.838C93.8518 13.946 93.6358 14 93.3958 14ZM102.987 14.108C102.723 14.108 102.471 14.054 102.231 13.946C101.991 13.838 101.835 13.676 101.763 13.46L98.1993 1.796C98.1873 1.736 98.1813 1.676 98.1813 1.616C98.1813 1.46 98.2413 1.328 98.3613 1.22C98.4813 1.1 98.6313 1.01 98.8113 0.95C99.0033 0.878 99.1893 0.842 99.3693 0.842C99.5253 0.842 99.6633 0.872 99.7833 0.932C99.9153 0.992 99.9993 1.094 100.035 1.238L102.969 11.498L104.607 5.054C104.655 4.862 104.769 4.724 104.949 4.64C105.141 4.544 105.339 4.496 105.543 4.496C105.771 4.496 105.975 4.544 106.155 4.64C106.335 4.724 106.449 4.862 106.497 5.054L108.135 11.498L111.069 1.238C111.117 1.094 111.201 0.992 111.321 0.932C111.441 0.872 111.579 0.842 111.735 0.842C111.915 0.842 112.095 0.878 112.275 0.95C112.455 1.01 112.605 1.1 112.725 1.22C112.857 1.328 112.923 1.46 112.923 1.616C112.923 1.676 112.911 1.736 112.887 1.796L109.341 13.46C109.269 13.676 109.113 13.838 108.873 13.946C108.645 14.054 108.393 14.108 108.117 14.108C107.853 14.108 107.601 14.054 107.361 13.946C107.121 13.838 106.977 13.676 106.929 13.46L105.543 8.024L104.193 13.46C104.133 13.676 103.983 13.838 103.743 13.946C103.515 14.054 103.263 14.108 102.987 14.108ZM113.889 14C113.721 14 113.541 13.964 113.349 13.892C113.157 13.82 113.001 13.73 112.881 13.622C112.761 13.502 112.701 13.364 112.701 13.208C112.701 13.172 112.707 13.118 112.719 13.046L116.301 1.382C116.373 1.166 116.523 1.004 116.751 0.895999C116.991 0.787999 117.243 0.733999 117.507 0.733999C117.783 0.733999 118.035 0.787999 118.263 0.895999C118.503 1.004 118.659 1.166 118.731 1.382L122.295 13.046C122.319 13.118 122.331 13.172 122.331 13.208C122.331 13.352 122.265 13.484 122.133 13.604C122.013 13.724 121.857 13.82 121.665 13.892C121.485 13.964 121.305 14 121.125 14C120.969 14 120.831 13.97 120.711 13.91C120.603 13.85 120.525 13.748 120.477 13.604L119.739 11.048H115.275L114.555 13.604C114.519 13.748 114.435 13.85 114.303 13.91C114.183 13.97 114.045 14 113.889 14ZM115.707 9.518H119.307L117.507 3.344L115.707 9.518ZM130.837 14.054C130.681 14.054 130.537 14 130.405 13.892C130.285 13.784 130.183 13.652 130.099 13.496L127.453 8.348H125.653V13.37C125.653 13.574 125.551 13.73 125.347 13.838C125.155 13.946 124.939 14 124.699 14C124.459 14 124.237 13.946 124.033 13.838C123.841 13.73 123.745 13.574 123.745 13.37V1.454C123.745 1.286 123.799 1.142 123.907 1.022C124.027 0.902 124.189 0.842 124.393 0.842H127.813C128.569 0.842 129.259 0.956 129.883 1.184C130.507 1.4 131.005 1.778 131.377 2.318C131.749 2.846 131.935 3.578 131.935 4.514C131.935 5.234 131.821 5.834 131.593 6.314C131.377 6.794 131.077 7.178 130.693 7.466C130.321 7.742 129.895 7.946 129.415 8.078L131.935 12.812C131.959 12.848 131.977 12.896 131.989 12.956C132.001 13.004 132.007 13.046 132.007 13.082C132.007 13.238 131.947 13.394 131.827 13.55C131.707 13.694 131.557 13.814 131.377 13.91C131.209 14.006 131.029 14.054 130.837 14.054ZM125.653 6.818H127.813C128.485 6.818 129.019 6.656 129.415 6.332C129.823 6.008 130.027 5.456 130.027 4.676C130.027 3.896 129.823 3.344 129.415 3.02C129.019 2.696 128.485 2.534 127.813 2.534H125.653V6.818ZM134.54 14C134.336 14 134.144 13.946 133.964 13.838C133.784 13.73 133.694 13.574 133.694 13.37V1.472C133.694 1.268 133.784 1.112 133.964 1.004C134.144 0.896 134.336 0.842 134.54 0.842H140.948C141.176 0.842 141.338 0.932 141.434 1.112C141.53 1.292 141.578 1.478 141.578 1.67C141.578 1.898 141.524 2.102 141.416 2.282C141.308 2.45 141.152 2.534 140.948 2.534H135.602V6.656H138.374C138.578 6.656 138.734 6.734 138.842 6.89C138.95 7.046 139.004 7.226 139.004 7.43C139.004 7.598 138.956 7.766 138.86 7.934C138.764 8.09 138.602 8.168 138.374 8.168H135.602V12.308H140.948C141.152 12.308 141.308 12.392 141.416 12.56C141.524 12.728 141.578 12.932 141.578 13.172C141.578 13.364 141.53 13.55 141.434 13.73C141.338 13.91 141.176 14 140.948 14H134.54Z" fill="#42526E"/>
</svg>
