<?xml version="1.0"?>
<svg width="24" height="24" xmlns="http://www.w3.org/2000/svg" xmlns:svg="http://www.w3.org/2000/svg">
 <g class="layer">
  <title>Layer 1</title>
  <rect fill="none" height="24" id="svg_1" width="24"/>
  <path d="m16,3l-11,0c-0.53,0 -1.04,0.21 -1.42,0.58c-0.37,0.38 -0.58,0.89 -0.58,1.42l0,14c0,1.11 0.89,2 2,2l14,0c0.53,0 1.04,-0.21 1.42,-0.58c0.37,-0.38 0.58,-0.89 0.58,-1.42l0,-11l0,3l-2,0l0,8l-14,0l0,-14l8,0l0,-2l3,0z" fill="#42526E" id="svg_2"/>
  <path clip-rule="evenodd" d="m19,5l0,-1.01c0,-0.26 -0.11,-0.52 -0.3,-0.7c-0.18,-0.19 -0.44,-0.29 -0.7,-0.29c-0.56,0 -1,0.44 -1,0.99l0,1.01l-1,0c-0.27,0 -0.52,0.11 -0.71,0.29c-0.18,0.19 -0.29,0.44 -0.29,0.71c0,0.27 0.11,0.52 0.29,0.71c0.19,0.18 0.44,0.29 0.71,0.29l1,0l0,1.01c0,0.26 0.11,0.52 0.3,0.7c0.18,0.19 0.44,0.29 0.7,0.29c0.56,0 1,-0.44 1,-0.99l0,-1.01l1,0c0.27,0 0.52,-0.11 0.71,-0.29c0.18,-0.19 0.29,-0.44 0.29,-0.71c0,-0.27 -0.11,-0.52 -0.29,-0.71c-0.19,-0.18 -0.44,-0.29 -0.71,-0.29l-1,0z" fill="#42526E" fill-rule="evenodd" id="svg_3"/>
 </g>
</svg>