<svg width="32" height="32" viewBox="0 0 32 32" fill="none" xmlns="http://www.w3.org/2000/svg">
<rect width="32" height="32" rx="16" fill="white" fill-opacity="0.01"/>
<rect width="24" height="24" transform="translate(4 4)" fill="white" fill-opacity="0.01"/>
<path fill-rule="evenodd" clip-rule="evenodd" d="M26 16C26 21.5228 21.5228 26 16 26C10.4772 26 6 21.5228 6 16C6 10.4772 10.4772 6 16 6C21.5228 6 26 10.4772 26 16ZM18.8284 11.16C19.3505 11.6795 19.7181 12.3338 19.89 13.05C20.1223 14.008 19.9918 15.0181 19.5235 15.8856C19.0552 16.7531 18.2824 17.4165 17.354 17.748C17.149 17.821 17.004 18.003 17.004 18.22V19.002C17.004 19.2677 16.8984 19.5226 16.7105 19.7105C16.5226 19.8984 16.2677 20.004 16.002 20.004C15.7363 20.004 15.4814 19.8984 15.2935 19.7105C15.1056 19.5226 15 19.2677 15 19.002V16.988C15.0034 16.725 15.1103 16.474 15.2975 16.2893C15.4846 16.1046 15.7369 16.001 15.9998 16.001H15.993C17.098 16.001 17.996 15.103 17.996 14.001C17.984 13.4774 17.7676 12.9793 17.3929 12.6133C17.0183 12.2473 16.5153 12.0425 15.9915 12.0427C15.4678 12.043 14.9649 12.2483 14.5907 12.6147C14.2164 12.981 14.0004 13.4794 13.989 14.003C13.987 14.554 13.539 15.001 12.987 15.001C12.7402 14.9995 12.5028 14.906 12.3212 14.7388C12.1396 14.5717 12.0269 14.3428 12.005 14.097L12 13.95C12.017 11.446 14.321 9.51399 16.933 10.108C17.6501 10.2763 18.3063 10.6405 18.8284 11.16ZM17 22C17 22.5523 16.5523 23 16 23C15.4477 23 15 22.5523 15 22C15 21.4477 15.4477 21 16 21C16.5523 21 17 21.4477 17 22Z" fill="#344563"/>
</svg>
